<svg id="Layer_1" data-name="Layer 1" xmlns="http://www.w3.org/2000/svg" xmlns:xlink="http://www.w3.org/1999/xlink" viewBox="0 0 500 385.57"><defs><style>.cls-1,.cls-2{fill-rule:evenodd;}.cls-1{fill:url(#linear-gradient);}.cls-2{fill:url(#linear-gradient-2);}</style><linearGradient id="linear-gradient" x1="160.78" y1="732.87" x2="587.4" y2="306.25" gradientTransform="matrix(1.17, 0, 0, -0.78, 61.57, 882.46)" gradientUnits="userSpaceOnUse"><stop offset="0" stop-color="#cbced0"/><stop offset="1" stop-color="#84838b"/></linearGradient><linearGradient id="linear-gradient-2" x1="283.24" y1="566.11" x2="573.87" y2="275.48" gradientTransform="matrix(0.95, 0, 0, -0.97, 169.71, 977.37)" gradientUnits="userSpaceOnUse"><stop offset="0" stop-color="#276dc3"/><stop offset="1" stop-color="#165caa"/></linearGradient></defs><path class="cls-1" d="M500,642.08c-138.07,0-250-75-250-167.43S361.93,307.22,500,307.22s250,75,250,167.43S638.07,642.08,500,642.08Zm38.27-269.4c-104.95,0-190,51.24-190,114.46s85.07,114.46,190,114.46,182.39-35,182.39-114.46S643.21,372.68,538.27,372.68Z" transform="translate(-250 -307.22)"/><path class="cls-2" d="M630.74,566.54s15.13,4.57,23.92,9a46,46,0,0,1,12.13,8.67,32.81,32.81,0,0,1,5.55,8L732,692.74l-96.38,0-45.07-84.63s-9.23-15.86-14.91-20.46c-4.74-3.83-6.75-5.2-11.44-5.2h-22.9l0,110.23-85.29,0V411.18H627.27s78,1.41,78,75.62S630.74,566.54,630.74,566.54Zm-37.1-94.28-51.63,0,0,47.87h51.66s23.92-.08,23.92-24.36c0-24.77-23.92-23.47-23.92-23.47Z" transform="translate(-250 -307.22)"/></svg>